<svg width="114" height="114" viewBox="0 0 114 114" fill="none" xmlns="http://www.w3.org/2000/svg">
<mask id="mask0" mask-type="alpha" maskUnits="userSpaceOnUse" x="0" y="0" width="114" height="114">
<rect width="114" height="114" rx="57" fill="#FF3E56"/>
</mask>
<g mask="url(#mask0)">
<rect width="114" height="114" rx="57" fill="#FF3E56"/>
</g>
<path d="M69.7731 39.2298L70.4802 39.9369L71.1873 39.2298C77.1153 33.3018 86.7265 33.3018 92.6545 39.2298C98.5824 45.1578 98.5824 54.769 92.6545 60.6969L70.4802 82.8712L48.306 60.6969C42.378 54.769 42.378 45.1578 48.306 39.2298C54.234 33.3018 63.8451 33.3018 69.7731 39.2298Z" fill="#324757" fill-opacity="0.5" stroke="white" stroke-width="2"/>
<path d="M46.9352 39.2298L47.6423 39.9369L48.3494 39.2298C54.2774 33.3018 63.8886 33.3018 69.8166 39.2298C75.7446 45.1578 75.7446 54.769 69.8166 60.6969L47.6423 82.8712L25.4681 60.6969C19.5401 54.769 19.5401 45.1578 25.4681 39.2298C31.3961 33.3018 41.0072 33.3018 46.9352 39.2298Z" fill="#324757" fill-opacity="0.5" stroke="white" stroke-width="2"/>
<mask id="path-5-inside-1" fill="white">
<path fill-rule="evenodd" clip-rule="evenodd" d="M47.6206 38.501C47.6278 38.5082 47.635 38.5154 47.6422 38.5226C50.786 35.3788 54.9017 33.7992 59.0222 33.7838C63.1687 33.7794 67.3166 35.359 70.4802 38.5227C70.4875 38.5155 70.4947 38.5083 70.5019 38.501C70.5091 38.5082 70.5163 38.5154 70.5235 38.5226C76.842 44.8411 76.842 55.0854 70.5235 61.4039L59.0612 72.8663L47.5989 61.4041C41.2804 55.0855 41.2804 44.8412 47.5989 38.5227C47.6061 38.5155 47.6133 38.5083 47.6206 38.501Z"/>
</mask>
<path fill-rule="evenodd" clip-rule="evenodd" d="M47.6206 38.501C47.6278 38.5082 47.635 38.5154 47.6422 38.5226C50.786 35.3788 54.9017 33.7992 59.0222 33.7838C63.1687 33.7794 67.3166 35.359 70.4802 38.5227C70.4875 38.5155 70.4947 38.5083 70.5019 38.501C70.5091 38.5082 70.5163 38.5154 70.5235 38.5226C76.842 44.8411 76.842 55.0854 70.5235 61.4039L59.0612 72.8663L47.5989 61.4041C41.2804 55.0855 41.2804 44.8412 47.5989 38.5227C47.6061 38.5155 47.6133 38.5083 47.6206 38.501Z" fill="#FF3E56"/>
<path d="M47.6422 38.5226L46.228 39.9368L47.6422 41.351L49.0564 39.9368L47.6422 38.5226ZM47.6206 38.501L49.0321 37.0842L47.6206 35.6779L46.209 37.0842L47.6206 38.501ZM59.0222 33.7838L59.02 31.7838L59.0147 31.7838L59.0222 33.7838ZM70.4802 38.5227L69.066 39.9369L70.4802 41.3511L71.8944 39.9369L70.4802 38.5227ZM70.5019 38.501L71.9135 37.0842L70.5019 35.6779L69.0904 37.0842L70.5019 38.501ZM70.5235 61.4039L71.9377 62.8182L70.5235 61.4039ZM59.0612 72.8663L57.6469 74.2805L59.0612 75.6948L60.4754 74.2805L59.0612 72.8663ZM49.0564 37.1084C49.0483 37.1003 49.0402 37.0922 49.0321 37.0842L46.209 39.9179C46.2153 39.9242 46.2217 39.9305 46.228 39.9368L49.0564 37.1084ZM59.0147 31.7838C54.3879 31.8011 49.76 33.5764 46.228 37.1084L49.0564 39.9368C51.812 37.1812 55.4155 35.7973 59.0296 35.7838L59.0147 31.7838ZM71.8944 37.1085C68.3401 33.5541 63.676 31.7789 59.02 31.7838L59.0243 35.7838C62.6614 35.78 66.293 37.1639 69.066 39.9369L71.8944 37.1085ZM69.0904 37.0842C69.0824 37.0921 69.0743 37.1002 69.066 37.1085L71.8944 39.9369C71.9006 39.9307 71.907 39.9244 71.9135 39.9179L69.0904 37.0842ZM71.9377 37.1084C71.9299 37.1005 71.9218 37.0924 71.9135 37.0842L69.0904 39.9179C69.0965 39.924 69.1028 39.9303 69.1093 39.9368L71.9377 37.1084ZM71.9377 62.8182C79.0373 55.7186 79.0373 44.2079 71.9377 37.1084L69.1093 39.9368C74.6468 45.4743 74.6468 54.4523 69.1093 59.9897L71.9377 62.8182ZM60.4754 74.2805L71.9377 62.8182L69.1093 59.9897L57.6469 71.4521L60.4754 74.2805ZM46.1847 62.8183L57.6469 74.2805L60.4754 71.4521L49.0131 59.9898L46.1847 62.8183ZM46.1847 37.1085C39.0851 44.208 39.0851 55.7187 46.1847 62.8183L49.0131 59.9898C43.4756 54.4524 43.4756 45.4744 49.0131 39.9369L46.1847 37.1085ZM46.209 37.0842C46.201 37.0922 46.1929 37.1003 46.1847 37.1085L49.0131 39.9369C49.0193 39.9307 49.0257 39.9243 49.0322 39.9179L46.209 37.0842Z" fill="white" mask="url(#path-5-inside-1)"/>
<path d="M59.0979 43.7324C56.5705 41.205 52.4728 41.205 49.9454 43.7324C47.418 46.2597 47.418 50.3574 49.9454 52.8848L59.0979 62.0373L68.2503 52.8848C70.7777 50.3574 70.7777 46.2597 68.2503 43.7324C65.7229 41.205 61.6252 41.205 59.0979 43.7324Z" fill="#984256"/>
</svg>
