<svg width="490" height="87" viewBox="0 0 490 87" fill="none" xmlns="http://www.w3.org/2000/svg">
<path d="M5.18 15.54C5.18 13.86 6.06667 12.4133 7.84 11.2C9.61333 9.98666 11.2 9.37999 12.6 9.37999C15.12 9.37999 16.38 10.8267 16.38 13.72C16.38 16.6133 15.6333 19.1333 14.14 21.28C12.6467 23.3333 10.5467 24.36 7.84 24.36C6.06667 24.36 5.18 21.42 5.18 15.54ZM9.24 84.7C5.6 84.7 2.84667 83.9533 0.98 82.46C0.326667 81.8067 0 79.4733 0 75.46C0 71.4467 0.28 64.7733 0.84 55.44C1.49333 46.0133 2.05333 40.9267 2.52 40.18C2.98667 39.4333 4.43333 38.0333 6.86 35.98C9.28667 33.9267 11.1533 32.9 12.46 32.9C13.86 32.9 14.56 34.6733 14.56 38.22C14.56 39.1533 14.28 40.9733 13.72 43.68C13.2533 46.3867 12.6933 48.3467 12.04 49.56C10.8267 52.64 10.22 60.7133 10.22 73.78C10.22 76.3 10.5 77.56 11.06 77.56C12.6467 77.4667 14.84 75.5067 17.64 71.68C20.44 67.76 23.1933 62.7667 25.9 56.7C28.7 50.6333 30.38 47.6 30.94 47.6C31.5933 47.6 31.92 47.9733 31.92 48.72C31.92 51.3333 30.5667 55.4867 27.86 61.18C20.4867 76.86 14.28 84.7 9.24 84.7ZM55.8327 61.18C48.4593 76.86 42.206 84.7 37.0727 84.7C32.0327 84.7 29.046 84.0933 28.1127 82.88C27.2727 81.6667 26.8527 77.6533 26.8527 70.84C26.8527 64.0267 27.506 54.18 28.8127 41.3C24.146 40.3667 21.6727 38.4533 21.3927 35.56C21.3927 34.0667 22.3727 33.32 24.3327 33.32C26.2927 33.32 28.0193 33.6933 29.5127 34.44C30.3527 27.72 31.3327 20.9067 32.4527 14C32.7327 12.2267 33.6193 10.5467 35.1127 8.96C36.606 7.37333 38.0527 6.58 39.4527 6.58C40.666 6.58 41.2727 8.49333 41.2727 12.32C41.2727 14.0933 40.6193 22.26 39.3127 36.82C41.8327 36.3533 44.586 35.42 47.5727 34.02C50.6527 32.62 52.4727 31.92 53.0327 31.92C54.7127 31.92 55.5527 32.4333 55.5527 33.46C55.646 34.3933 53.9193 35.7 50.3727 37.38C46.826 38.9667 42.9993 40.18 38.8927 41.02C37.7727 54.6467 37.2127 64.96 37.2127 71.96C37.2127 75.6933 37.7727 77.56 38.8927 77.56C40.5727 77.4667 42.8127 75.5067 45.6127 71.68C48.4127 67.8533 51.166 62.9067 53.8727 56.84C56.6727 50.68 58.3527 47.6 58.9127 47.6C59.566 47.6 59.8927 47.9733 59.8927 48.72C59.8927 51.3333 58.5393 55.4867 55.8327 61.18ZM59.3567 9.23999C59.3567 8.21333 60.2434 6.90666 62.0167 5.31999C63.7901 3.63999 65.3767 2.79999 66.7767 2.79999C68.1767 2.79999 69.4367 3.68666 70.5567 5.45999C71.6767 7.13999 72.2367 9.14666 72.2367 11.48C72.2367 13.8133 70.5101 17.4067 67.0567 22.26C63.6967 27.02 60.8501 29.4 58.5167 29.4C57.7701 29.4 57.3967 28.8867 57.3967 27.86C57.3967 26.8333 58.3301 25.1067 60.1967 22.68C62.0634 20.2533 62.9967 18.3867 62.9967 17.08C62.9967 15.68 62.3901 14.28 61.1767 12.88C59.9634 11.48 59.3567 10.2667 59.3567 9.23999ZM92.9075 41.16L93.1875 39.06C93.1875 37.38 92.2075 36.54 90.2475 36.54C88.3808 36.54 86.5608 37.8 84.7875 40.32C83.0142 42.7467 82.1275 44.7533 82.1275 46.34C82.1275 47.9267 82.2208 49.1867 82.4075 50.12C82.5942 51.0533 82.7808 51.8467 82.9675 52.5C83.2475 53.06 83.6675 53.76 84.2275 54.6C84.7875 55.44 85.2075 56.0467 85.4875 56.42L87.0275 58.38C87.6808 59.3133 88.1475 59.92 88.4275 60.2C93.2808 56.1867 99.0675 51.7067 105.788 46.76C106.161 46.48 106.581 46.34 107.048 46.34C107.981 46.34 108.448 46.8533 108.448 47.88C108.448 48.9067 108.028 49.7 107.188 50.26C101.214 54.0867 95.5675 58.24 90.2475 62.72C92.3008 65.7067 93.3275 68.9733 93.3275 72.52C93.3275 76.0667 91.9742 79.1 89.2675 81.62C86.5608 84.14 83.1075 85.4 78.9075 85.4C74.7075 85.4 72.6075 83.3933 72.6075 79.38C72.6075 76.4867 75.6875 72.0533 81.8475 66.08C81.3808 65.52 80.5408 64.6333 79.3275 63.42C78.1142 62.1133 77.1808 61.0867 76.5275 60.34C75.9675 59.5933 75.2675 58.6133 74.4275 57.4C72.9342 55.0667 72.1875 52.5467 72.1875 49.84C72.1875 44.3333 73.9608 39.9 77.5075 36.54C81.0542 33.0867 84.8342 31.36 88.8475 31.36C91.3675 31.36 93.3275 32.06 94.7275 33.46C96.1275 34.7667 96.8275 36.12 96.8275 37.52C96.8275 40.6933 96.0808 42.28 94.5875 42.28C93.4675 42.28 92.9075 41.9067 92.9075 41.16ZM83.9475 68.74C80.2142 72.4733 78.3475 75.5067 78.3475 77.84C78.3475 80.08 79.5142 81.2 81.8475 81.2C83.2475 81.2 84.4142 80.64 85.3475 79.52C87.4008 76.72 86.9342 73.1267 83.9475 68.74ZM168.539 84.7C164.899 84.7 162.146 83.9533 160.279 82.46C159.626 81.8067 159.299 80.1733 159.299 77.56C159.299 74.8533 159.393 71.26 159.579 66.78C157.153 72.8467 154.726 77.3733 152.299 80.36C149.966 83.2533 146.933 84.7 143.199 84.7C139.466 84.7 136.199 82.9733 133.399 79.52C130.599 75.9733 129.199 70.4667 129.199 63C129.199 55.44 131.299 48.7667 135.499 42.98C139.793 37.1933 145.393 34.3 152.299 34.3C155.286 34.3 158.646 36.26 162.379 40.18C163.126 39.1533 164.433 37.94 166.299 36.54C168.259 35.0467 169.893 34.3 171.199 34.3C172.599 34.3 173.299 36.0733 173.299 39.62C173.299 40.5533 173.019 42.3733 172.459 45.08C171.993 47.7867 171.433 49.7467 170.779 50.96C169.939 53.1067 169.519 60.7133 169.519 73.78C169.519 76.3 169.799 77.56 170.359 77.56C171.946 77.4667 174.139 75.5067 176.939 71.68C179.739 67.76 182.493 62.7667 185.199 56.7C187.999 50.6333 189.679 47.6 190.239 47.6C190.893 47.6 191.219 47.9733 191.219 48.72C191.219 51.3333 189.866 55.4867 187.159 61.18C179.786 76.86 173.579 84.7 168.539 84.7ZM151.459 39.9C148.846 39.9 146.046 41.86 143.059 45.78C140.166 49.6067 138.719 54.1333 138.719 59.36C138.719 64.5867 139.466 68.88 140.959 72.24C142.546 75.6 144.599 77.28 147.119 77.28C150.199 77.28 154.726 69.58 160.699 54.18C160.793 53.4333 160.886 52.1733 160.979 50.4C161.166 48.5333 161.306 47.1333 161.399 46.2C160.559 44.7067 159.066 43.3067 156.919 42C154.866 40.6 153.046 39.9 151.459 39.9ZM222.304 76.44L222.444 80.78C222.444 83.3933 221.697 84.7 220.204 84.7C217.964 84.7 215.817 84.42 213.764 83.86C211.71 83.2067 210.684 82.3667 210.684 81.34C210.684 80.22 210.917 76.5333 211.384 70.28C211.944 63.9333 212.224 59.1733 212.224 56V47.74C212.224 43.26 212.69 40.5533 213.624 39.62C214.557 38.6867 216.19 37.3333 218.524 35.56C220.95 33.7867 222.677 32.9 223.704 32.9C224.824 32.9 225.524 33.0867 225.804 33.46C226.084 33.8333 226.224 34.5333 226.224 35.56C226.224 40.5067 225.29 45.1733 223.424 49.56C222.957 54.88 222.724 58.5667 222.724 60.62C227.67 51.38 231.124 45.3133 233.084 42.42C236.537 37.0067 239.664 34.3 242.464 34.3C244.237 34.3 245.87 35 247.364 36.4C248.95 37.8 249.744 39.5267 249.744 41.58C249.744 43.6333 249.697 45.5933 249.604 47.46C249.604 49.2333 249.557 50.6333 249.464 51.66C249.37 52.6867 249.324 53.34 249.324 53.62C249.697 52.8733 251.284 50.7733 254.084 47.32C256.884 43.8667 258.75 41.6267 259.684 40.6C260.71 39.5733 261.784 38.5467 262.904 37.52C265.05 35.3733 266.964 34.3 268.644 34.3C270.417 34.3 272.05 34.9533 273.544 36.26C275.13 37.5667 275.924 39.2 275.924 41.16C275.924 45.2667 275.457 51.3333 274.524 59.36C273.684 67.2933 273.264 72.3333 273.264 74.48C273.264 76.5333 273.544 77.56 274.104 77.56C275.69 77.4667 277.884 75.5067 280.684 71.68C283.484 67.76 286.237 62.7667 288.944 56.7C291.744 50.6333 293.424 47.6 293.984 47.6C294.637 47.6 294.964 47.9733 294.964 48.72C294.964 51.3333 293.61 55.4867 290.904 61.18C283.53 76.86 277.324 84.7 272.284 84.7C269.11 84.7 266.59 83.9533 264.724 82.46C264.07 81.8067 263.744 80.1267 263.744 77.42C263.744 74.62 263.977 70.14 264.444 63.98C265.004 57.7267 265.284 53.06 265.284 49.98C265.284 46.9 264.77 45.36 263.744 45.36C262.53 45.36 259.87 47.4133 255.764 51.52C251.75 55.6267 249.604 58.52 249.324 60.2C248.764 63.3733 248.484 70.2333 248.484 80.78C248.484 83.3933 247.784 84.7 246.384 84.7C244.237 84.7 242.184 84.42 240.224 83.86C238.357 83.2067 237.424 82.3667 237.424 81.34C237.424 80.22 237.704 75.6 238.264 67.48C238.824 59.36 239.104 53.6667 239.104 50.4C239.104 47.04 238.544 45.36 237.424 45.36C236.397 45.36 233.83 48.58 229.724 55.02C225.617 61.3667 223.33 65.8 222.864 68.32C222.49 70.84 222.304 73.5467 222.304 76.44ZM325.903 84.7C322.263 84.7 319.509 83.9533 317.643 82.46C316.989 81.8067 316.663 80.1733 316.663 77.56C316.663 74.8533 316.756 71.26 316.943 66.78C314.516 72.8467 312.089 77.3733 309.663 80.36C307.329 83.2533 304.296 84.7 300.563 84.7C296.829 84.7 293.563 82.9733 290.763 79.52C287.963 75.9733 286.562 70.4667 286.562 63C286.562 55.44 288.663 48.7667 292.863 42.98C297.156 37.1933 302.756 34.3 309.663 34.3C312.649 34.3 316.009 36.26 319.743 40.18C320.489 39.1533 321.796 37.94 323.663 36.54C325.623 35.0467 327.256 34.3 328.563 34.3C329.963 34.3 330.663 36.0733 330.663 39.62C330.663 40.5533 330.383 42.3733 329.823 45.08C329.356 47.7867 328.796 49.7467 328.143 50.96C327.303 53.1067 326.883 60.7133 326.883 73.78C326.883 76.3 327.163 77.56 327.722 77.56C329.309 77.4667 331.503 75.5067 334.303 71.68C337.103 67.76 339.856 62.7667 342.563 56.7C345.363 50.6333 347.043 47.6 347.603 47.6C348.256 47.6 348.583 47.9733 348.583 48.72C348.583 51.3333 347.229 55.4867 344.523 61.18C337.149 76.86 330.943 84.7 325.903 84.7ZM308.823 39.9C306.209 39.9 303.409 41.86 300.423 45.78C297.529 49.6067 296.083 54.1333 296.083 59.36C296.083 64.5867 296.829 68.88 298.323 72.24C299.909 75.6 301.963 77.28 304.483 77.28C307.563 77.28 312.089 69.58 318.063 54.18C318.156 53.4333 318.249 52.1733 318.343 50.4C318.529 48.5333 318.669 47.1333 318.763 46.2C317.923 44.7067 316.429 43.3067 314.283 42C312.229 40.6 310.409 39.9 308.823 39.9ZM371.516 61.18C364.143 76.86 357.89 84.7 352.756 84.7C347.716 84.7 344.73 84.0933 343.796 82.88C342.956 81.6667 342.536 77.6533 342.536 70.84C342.536 64.0267 343.19 54.18 344.496 41.3C339.83 40.3667 337.356 38.4533 337.076 35.56C337.076 34.0667 338.056 33.32 340.016 33.32C341.976 33.32 343.703 33.6933 345.196 34.44C346.036 27.72 347.016 20.9067 348.136 14C348.416 12.2267 349.303 10.5467 350.796 8.96C352.29 7.37333 353.736 6.58 355.136 6.58C356.35 6.58 356.956 8.49333 356.956 12.32C356.956 14.0933 356.303 22.26 354.996 36.82C357.516 36.3533 360.27 35.42 363.256 34.02C366.336 32.62 368.156 31.92 368.716 31.92C370.396 31.92 371.236 32.4333 371.236 33.46C371.33 34.3933 369.603 35.7 366.056 37.38C362.51 38.9667 358.683 40.18 354.576 41.02C353.456 54.6467 352.896 64.96 352.896 71.96C352.896 75.6933 353.456 77.56 354.576 77.56C356.256 77.4667 358.496 75.5067 361.296 71.68C364.096 67.8533 366.85 62.9067 369.556 56.84C372.356 50.68 374.036 47.6 374.596 47.6C375.25 47.6 375.576 47.9733 375.576 48.72C375.576 51.3333 374.223 55.4867 371.516 61.18ZM393.38 49.98L394.5 42.84C394.5 41.8133 394.174 40.88 393.52 40.04C392.867 39.2 392.027 38.78 391 38.78C387.547 38.78 384.56 41.3933 382.04 46.62C379.52 51.7533 378.26 56.7 378.26 61.46C378.26 66.22 379.24 70.0933 381.2 73.08C383.16 75.9733 385.54 77.42 388.34 77.42C391.234 77.42 393.8 76.7667 396.04 75.46C398.28 74.1533 400.334 72.2867 402.2 69.86C406.12 64.7267 409.48 58.8933 412.28 52.36C413.027 50.68 413.587 49.4667 413.96 48.72C414.427 47.9733 414.894 47.6 415.36 47.6C415.92 47.6 416.2 47.9733 416.2 48.72C416.2 51.8 415.127 55.4867 412.98 59.78C410.834 64.0733 409.014 67.3867 407.52 69.72C406.12 71.96 404.3 74.34 402.06 76.86C397.394 82.0867 391.56 84.7 384.56 84.7C379.24 84.7 375.18 82.8333 372.38 79.1C369.674 75.2733 368.32 71.2133 368.32 66.92C368.32 56.28 370.607 48.2067 375.18 42.7C379.847 37.1 385.727 34.3 392.82 34.3C395.807 34.3 398.14 35.0933 399.82 36.68C401.594 38.1733 402.48 39.9 402.48 41.86C402.48 45.5 401.827 48.2067 400.52 49.98C399.214 51.7533 397.627 52.64 395.76 52.64C394.174 52.64 393.38 51.7533 393.38 49.98ZM419.999 76.44L420.139 80.78C420.139 83.3933 419.392 84.7 417.899 84.7C415.659 84.7 413.512 84.42 411.459 83.86C409.406 83.2067 408.379 82.3667 408.379 81.34C408.379 80.22 408.612 76.5333 409.079 70.28C409.639 63.9333 409.919 59.1733 409.919 56V47.88C409.919 23.9867 414.166 8.77333 422.659 2.23999C424.619 0.746662 426.626 -3.33786e-06 428.679 -3.33786e-06C429.612 -3.33786e-06 430.546 1.02666 431.479 3.08C432.412 5.13333 432.879 7.79333 432.879 11.06C432.879 19.0867 431.526 26.6 428.819 33.6C426.112 40.6 423.359 45.9667 420.559 49.7C420.466 52.0333 420.419 55.6733 420.419 60.62C420.792 60.06 422.752 56.8867 426.299 51.1C429.846 45.3133 432.832 41.0667 435.259 38.36C437.779 35.6533 440.019 34.3 441.979 34.3C443.939 34.3 445.666 34.9533 447.159 36.26C448.746 37.5667 449.539 39.2 449.539 41.16C449.539 45.2667 449.072 51.3333 448.139 59.36C447.299 67.2933 446.879 72.3333 446.879 74.48C446.879 76.5333 447.159 77.56 447.719 77.56C449.306 77.4667 451.499 75.5067 454.299 71.68C457.099 67.76 459.852 62.7667 462.559 56.7C465.359 50.6333 467.039 47.6 467.599 47.6C468.252 47.6 468.579 47.9733 468.579 48.72C468.579 51.3333 467.226 55.4867 464.519 61.18C457.146 76.86 450.939 84.7 445.899 84.7C442.259 84.7 439.506 83.9533 437.639 82.46C436.986 81.8067 436.659 80.1267 436.659 77.42C436.659 74.62 436.892 70.14 437.359 63.98C437.919 57.7267 438.199 53.06 438.199 49.98C438.199 46.9 437.639 45.36 436.519 45.36C435.492 45.36 432.692 48.58 428.119 55.02C423.546 61.3667 421.119 65.4267 420.839 67.2C420.279 70.4667 419.999 73.5467 419.999 76.44ZM429.099 14.14C429.099 10.22 428.586 8.26 427.559 8.26C425.879 8.26 424.246 13.44 422.659 23.8C421.819 29.3067 421.212 35.7 420.839 42.98C426.346 31.5 429.099 21.8867 429.099 14.14ZM475.452 86.52C474.052 86.52 472.699 86.0533 471.392 85.12C470.085 84.28 469.432 82.8333 469.432 80.78C469.525 78.7267 470.459 77.14 472.232 76.02C474.099 74.8067 475.825 74.2 477.412 74.2C478.999 74.2 480.305 74.6667 481.332 75.6C482.452 76.44 483.012 77.5133 483.012 78.82C483.012 83.9533 480.492 86.52 475.452 86.52ZM484.692 2.79999C485.532 2.79999 486.465 3.31333 487.492 4.34C488.519 5.27333 489.032 6.44 489.032 7.84C489.032 9.14666 488.939 10.4533 488.752 11.76C488.565 12.9733 488.239 14.4667 487.772 16.24C487.399 17.92 486.932 20.2067 486.372 23.1C485.905 25.9933 484.925 32.2467 483.432 41.86C481.939 51.4733 480.865 58.1467 480.212 61.88C480.025 62.72 479.559 63.5133 478.812 64.26C478.159 65.0067 477.459 65.38 476.712 65.38C474.659 65.38 473.632 63.56 473.632 59.92C473.632 54.04 473.772 49.0933 474.052 45.08C474.332 40.9733 474.519 37.1467 474.612 33.6C474.705 25.8533 475.172 20.1133 476.012 16.38C476.945 12.5533 478.205 9.33333 479.792 6.71999C481.472 4.10666 483.105 2.79999 484.692 2.79999Z" fill="white"/>
</svg>
