<svg width="100" height="100" viewBox="0 0 100 100" fill="none" xmlns="http://www.w3.org/2000/svg">
<rect width="100" height="100" rx="50" fill="#FF3E56"/>
<path d="M49.9656 31.9922C49.8921 31.9157 49.8177 31.8398 49.7424 31.7645C43.396 25.4118 33.1063 25.4118 26.7598 31.7645C20.4134 38.1171 20.4134 48.4168 26.7598 54.7695C26.8351 54.8448 26.911 54.9193 26.9873 54.9928L26.9852 54.995L49.9677 78L72.9503 54.995L72.9482 54.9928C73.0245 54.9193 73.1004 54.8448 73.1756 54.7695C79.5221 48.4168 79.5221 38.1171 73.1756 31.7645C66.8292 25.4118 56.5395 25.4118 50.1931 31.7645C50.1178 31.8398 50.0434 31.9157 49.9699 31.9922L49.9677 31.99L49.9656 31.9922Z" fill="white"/>
</svg>
